<svg id="Capa_1" data-name="Capa 1" xmlns="http://www.w3.org/2000/svg" viewBox="0 0 480.63 159.28"><defs><style>.cls-1{fill:#fff;}</style></defs><path class="cls-1" d="M298,250.68c-4.15-.33-8.29-.75-12.45-1-3.39-.19-6.79-.41-10.17-.64-5.25-.35-10.48-.73-15.73-1-3-.15-6.06-.39-9.09-.53-4-.18-7.92-.32-11.88-.52-3.79-.19-7.59-.32-11.38-.51-5.1-.26-10.21-.35-15.31-.55-7.66-.3-15.32-.6-23-.77-7.35-.16-14.69-.47-22-.6-4.67-.09-9.34-.07-14-.3-3.78-.19-7.55-.06-11.32-.26-6.08-.31-12.17-.43-18.25-.51-5.12-.06-10.22-.33-15.34-.36q-5.78,0-11.55-.27c-6-.24-12-.37-18-.55-4.66-.13-9.32-.29-14-.53-5.44-.28-10.89-.69-16.31-1.28-10.3-1.13-20.59-2.31-30.7-4.69a33,33,0,0,1-8-2.68c-1.34-.7-2.78-1.44-2.83-3.2s1.34-2.62,2.64-3.38c3.65-2.14,7.69-3.25,11.73-4.34,8-2.16,16.22-3.66,24.41-5.07,7.85-1.34,15.74-2.41,23.63-3.52,2.44-.35,4.89-.63,7.35-.92.33,0,.77-.23.86.33s-.13.73-.64.83c-2.79.51-5.56,1.1-8.35,1.6-4.34.77-8.69,1.49-13,2.26-5.57,1-11.14,2-16.65,3.33a36,36,0,0,0-7.82,2.57c-.75.37-1.81.68-1.77,1.63s1.1,1.21,1.86,1.55a46,46,0,0,0,10.1,2.7c7.14,1.31,14.32,2.26,21.53,3.07,5.19.58,10.37,1,15.58,1.28,3.2.14,6.39.29,9.58.51,4.37.29,8.74.34,13.11.57,7.29.38,14.59.46,21.89.79,8.79.4,17.6.49,26.39.85,3,.12,5.93,0,8.87.25,3.2.27,6.42,0,9.61.29s6.17,0,9.24.27,6.33,0,9.48.27,6.41,0,9.6.28c3,.27,6.08.12,9.12.24,6.08.22,12.16.37,18.23.56q8.4.25,16.78.54l23.22.81,13.72.53,14.09.54,11.89.49,12.38.56,10.42.5c4.89.26,9.78.51,14.67.79q6,.35,12,.73c3.94.26,7.88.51,11.83.79,4.67.33,9.34.64,14,1q9.87.83,19.72,1.77,7.8.76,15.58,1.73c14,1.73,28,3.68,41.67,7.46,5.18,1.43,10.28,3.09,14.8,6.12a12.16,12.16,0,0,1,2.57,2.23,6.06,6.06,0,0,1,.54,7.85,20.45,20.45,0,0,1-5.13,5.16c-5.69,4.25-12.12,7.09-18.7,9.6-13,5-26.54,8.43-40.13,11.53-14.88,3.39-29.89,6.14-45,8.62q-12.21,2-24.46,3.81c-6.56,1-13.15,1.81-19.73,2.67-7.33,1-14.67,1.92-22,2.81-5.82.7-11.65,1.3-17.48,1.95-5.58.62-11.15,1.27-16.73,1.86-4.26.44-8.53.8-12.79,1.21-5.47.53-10.94,1.09-16.41,1.61-2.93.27-5.87.47-8.8.72-4.39.38-8.77.8-13.16,1.16-2.74.22-5.49.36-8.24.52-.32,0-.79.15-.8-.45s.33-.58.72-.62l7.35-.87c4.09-.5,8.19-1,12.28-1.5,4.82-.6,9.63-1.2,14.44-1.87,5.4-.75,10.8-1.56,16.19-2.39q10.51-1.61,21-3.3c6.35-1,12.7-2.16,19-3.3,8.36-1.5,16.7-3.13,25-4.8,12.39-2.5,24.72-5.3,36.95-8.48,17.29-4.5,34.39-9.56,50.75-16.86,2.82-1.26,5.59-2.61,8.31-4.08a12.48,12.48,0,0,0,3.43-2.51,2.54,2.54,0,0,0,0-3.8,11,11,0,0,0-3.44-2.48c-4.92-2.51-10.23-3.89-15.56-5.2-8.57-2.09-17.25-3.63-26-4.92q-11.86-1.77-23.78-3.23c-8.29-1-16.59-2-24.92-2.64-4.6-.37-9.18-.94-13.78-1.36s-9.13-.77-13.69-1.16Z" transform="translate(-6.77 -167.21)"/><path class="cls-1" d="M270,184.54a3,3,0,0,0-.48,1.78c-1,12.27-2.76,24.46-4.35,36.67-.23,1.74-.42,1.94-2.12,1.94q-6.84,0-13.66-.05c-1.56,0-1.71-.18-1.5-1.7q2-15.1,4.1-30.19c1-7.53,2.07-15.06,3-22.59.15-1.18.64-1.6,1.79-1.59q11.52.08,23.05.08a2.08,2.08,0,0,1,2.13,1.43c5.46,12.51,11.16,24.92,15.68,37.83.12.32.15.87.56.85s.39-.63.42-1c.76-8.91,1.88-17.77,3-26.64.47-3.75,1-7.49,1.5-11.24a1.16,1.16,0,0,1,1.3-1.14l14.75.06c1.18,0,1.25.73,1.12,1.66q-1.54,11.29-3.06,22.59-2,14.85-4,29.7c-.27,2-.41,2.09-2.38,2.09-7.35,0-14.71-.06-22.07-.06a2.23,2.23,0,0,1-2.4-1.4c-5.33-12.09-10.71-24.15-15.29-36.55A7.46,7.46,0,0,0,270,184.54Z" transform="translate(-6.77 -167.21)"/><path class="cls-1" d="M122.28,225.45a71.17,71.17,0,0,1-20.19-2.25,25.28,25.28,0,0,1-9.4-4.48,11.94,11.94,0,0,1-4.32-6.87c-.28-1.27-.06-1.58,1.2-1.62,3.13-.09,6.26-.21,9.38-.21,4.19,0,8.36-.34,12.55-.25a2.4,2.4,0,0,1,2.5,1.45c1.22,2.52,3.54,3.65,6.15,4.11a24.28,24.28,0,0,0,12.61-1,7.22,7.22,0,0,0,3.36-2.33,3.78,3.78,0,0,0-.25-5,10.41,10.41,0,0,0-4.08-2.36c-6.06-2.27-12.31-4-18.42-6.05a53.6,53.6,0,0,1-11-4.9,17.72,17.72,0,0,1-3.91-3.08c-4-4.48-3.34-11,1.58-15.09,4.22-3.5,9.24-5.22,14.48-6.35a90.62,90.62,0,0,1,25.08-1.74,54.3,54.3,0,0,1,14.7,2.66,19.87,19.87,0,0,1,8.58,5.39,10.67,10.67,0,0,1,2.53,4.8c.27,1.18,0,1.58-1.24,1.66h-.24c-6.91.07-13.82.11-20.72.21a2.54,2.54,0,0,1-2.56-1.41,6.86,6.86,0,0,0-4.82-3.24,20.34,20.34,0,0,0-11.27.85,5.62,5.62,0,0,0-1.59.88,3.22,3.22,0,0,0-.33,5.17,10.47,10.47,0,0,0,3.73,2.25c4.75,2,9.75,3.11,14.66,4.54s9.78,2.79,14.31,5.17a17.37,17.37,0,0,1,6.33,5,8.81,8.81,0,0,1,1.28,8.43c-1.3,3.78-4,6.35-7.28,8.39a45.46,45.46,0,0,1-14.89,5.56A79,79,0,0,1,122.28,225.45Z" transform="translate(-6.77 -167.21)"/><path class="cls-1" d="M351.67,169.14c5.24,0,10.49-.09,15.73.09,6.4.22,12.72,1.05,18.65,3.73,7.05,3.18,11.1,8.54,11.71,16.33a37.43,37.43,0,0,1-3,18c-3.51,8.1-9.95,12.82-18.2,15.36A59.22,59.22,0,0,1,361.42,225c-11.26.47-22.52,0-33.77.11-1.91,0-2-.13-1.73-2.06q3.29-24.15,6.54-48.31c.18-1.33.41-2.65.53-4s.69-1.73,2-1.72c5.57.07,11.14.06,16.71.08Zm6.49,9.77H352.8c-1.93,0-2,0-2.29,2q-1.23,8.81-2.42,17.62c-.69,5.1-1.36,10.22-2.06,15.32-.13,1,.12,1.61,1.23,1.6,5.08,0,10.17.34,15.2-.48,4.81-.78,9.06-2.66,11.87-6.88,3.42-5.12,4.39-10.87,4-16.87s-3.72-9.65-9.4-11.36C365.39,178.79,361.78,178.91,358.16,178.91Z" transform="translate(-6.77 -167.21)"/><path class="cls-1" d="M203.28,225.72c-6.55.07-12.78-.64-18.67-3.23-8.65-3.8-13.05-10.46-13.3-19.91a35.21,35.21,0,0,1,4.48-18.85c4-7,10.13-11.38,17.68-13.72a55.62,55.62,0,0,1,33-.28c6.4,1.93,11.48,5.67,14.29,12,1.78,4,2,8.18,1.77,12.43a33.1,33.1,0,0,1-6,17.78,31.42,31.42,0,0,1-17,11.64A51.56,51.56,0,0,1,203.28,225.72Zm20.07-33.37a20.1,20.1,0,0,0-1-7,11.2,11.2,0,0,0-9-7.72c-7.53-1.39-14,.45-18.33,7.08a28.3,28.3,0,0,0-3.77,22,10.88,10.88,0,0,0,7.08,8.1,17.54,17.54,0,0,0,20.45-6.29C222.16,203.66,223.07,198.09,223.35,192.35Z" transform="translate(-6.77 -167.21)"/><path class="cls-1" d="M438.74,169.43c3.73,0,7.47.06,11.21,0a2,2,0,0,1,2.24,1.7q7.9,26.15,15.86,52.26c.06.19.12.39.17.58.37,1.35.19,1.62-1.21,1.62q-6.52,0-13.05,0c-1.34,0-2.68,0-4,0a1.59,1.59,0,0,1-1.83-1.5c-.69-3.38-1.45-6.75-2.18-10.13-.35-1.65-.51-1.8-2.18-1.81-7.24,0-14.47,0-21.7-.09a2.31,2.31,0,0,0-2.43,1.55c-1.61,3.55-3.36,7-5,10.57a2,2,0,0,1-2,1.28c-5.82,0-11.63,0-17.44-.07-1.27,0-1.39-.26-.76-1.36q14.32-24.87,28.66-49.75c.67-1.16,1.37-2.31,2-3.5a2.32,2.32,0,0,1,2.35-1.37C431.18,169.43,435,169.42,438.74,169.43Zm-4.5,32.9c2.44,0,4.88,0,7.31,0,1.31,0,1.51-.28,1.26-1.56-1.41-7.38-3.34-14.66-4.59-22.08-.06-.39-.12-.88-.59-1s-.72.44-.89.83c-3.3,7.56-7.11,14.88-10.65,22.33-.53,1.13-.39,1.38.83,1.4C429.36,202.34,431.8,202.33,434.24,202.33Z" transform="translate(-6.77 -167.21)"/><path class="cls-1" d="M487.4,218.23a7.17,7.17,0,0,1-7.15,7.11,7.32,7.32,0,0,1-7.13-7.21,7,7,0,0,1,7.22-7.11A6.85,6.85,0,0,1,487.4,218.23Zm-7.1,6a6.09,6.09,0,1,0-6.07-6.12A6,6,0,0,0,480.3,224.19Z" transform="translate(-6.77 -167.21)"/><path class="cls-1" d="M480,214.17c.53,0,1.06,0,1.58.1a2.05,2.05,0,0,1,1.5,3.34,1.19,1.19,0,0,0-.05,1.7,2.33,2.33,0,0,1,.38,2,.66.66,0,0,1-.55.58.63.63,0,0,1-.7-.54c-.08-.31-.12-.64-.17-1-.18-1.08-.93-1.3-1.88-1.29s-1.24.59-1.25,1.43a3.34,3.34,0,0,1-.12.84.61.61,0,0,1-.61.5.56.56,0,0,1-.6-.5,30.33,30.33,0,0,1,.05-6.53c.06-.45.54-.58,1-.59s1,0,1.45,0Zm.37,1c-.92-.07-1.47.27-1.48,1.28s.34,1.39,1.27,1.37,1.77-.14,1.82-1.28S481.22,215.25,480.35,215.19Z" transform="translate(-6.77 -167.21)"/></svg>