<svg width="163" height="50" viewBox="0 0 163 50" fill="none" xmlns="http://www.w3.org/2000/svg">
<rect width="163" height="50" rx="20" fill="#022E38"/>
<path d="M34.8602 19.75H29.9852L29.0552 22H26.5652L31.2452 11.5H33.6452L38.3402 22H35.7902L34.8602 19.75ZM34.0952 17.905L32.4302 13.885L30.7652 17.905H34.0952ZM39.4296 11.5H44.1996C45.3396 11.5 46.3446 11.72 47.2146 12.16C48.0946 12.59 48.7746 13.2 49.2546 13.99C49.7446 14.78 49.9896 15.7 49.9896 16.75C49.9896 17.8 49.7446 18.72 49.2546 19.51C48.7746 20.3 48.0946 20.915 47.2146 21.355C46.3446 21.785 45.3396 22 44.1996 22H39.4296V11.5ZM44.0796 20.005C45.1296 20.005 45.9646 19.715 46.5846 19.135C47.2146 18.545 47.5296 17.75 47.5296 16.75C47.5296 15.75 47.2146 14.96 46.5846 14.38C45.9646 13.79 45.1296 13.495 44.0796 13.495H41.8596V20.005H44.0796ZM63.1771 23.125C62.8371 23.545 62.4221 23.865 61.9321 24.085C61.4521 24.305 60.9221 24.415 60.3421 24.415C59.5621 24.415 58.8571 24.245 58.2271 23.905C57.5971 23.575 56.8771 22.985 56.0671 22.135C55.1171 22.015 54.2671 21.71 53.5171 21.22C52.7771 20.73 52.1971 20.1 51.7771 19.33C51.3671 18.55 51.1621 17.69 51.1621 16.75C51.1621 15.72 51.4071 14.795 51.8971 13.975C52.3971 13.145 53.0821 12.495 53.9521 12.025C54.8321 11.555 55.8171 11.32 56.9071 11.32C57.9971 11.32 58.9771 11.555 59.8471 12.025C60.7171 12.495 61.4021 13.145 61.9021 13.975C62.4021 14.795 62.6521 15.72 62.6521 16.75C62.6521 17.97 62.3071 19.04 61.6171 19.96C60.9371 20.88 60.0321 21.52 58.9021 21.88C59.1521 22.14 59.3921 22.325 59.6221 22.435C59.8621 22.555 60.1171 22.615 60.3871 22.615C61.0371 22.615 61.6071 22.355 62.0971 21.835L63.1771 23.125ZM53.6221 16.75C53.6221 17.4 53.7621 17.98 54.0421 18.49C54.3321 19 54.7271 19.4 55.2271 19.69C55.7271 19.97 56.2871 20.11 56.9071 20.11C57.5271 20.11 58.0871 19.97 58.5871 19.69C59.0871 19.4 59.4771 19 59.7571 18.49C60.0471 17.98 60.1921 17.4 60.1921 16.75C60.1921 16.1 60.0471 15.52 59.7571 15.01C59.4771 14.5 59.0871 14.105 58.5871 13.825C58.0871 13.535 57.5271 13.39 56.9071 13.39C56.2871 13.39 55.7271 13.535 55.2271 13.825C54.7271 14.105 54.3321 14.5 54.0421 15.01C53.7621 15.52 53.6221 16.1 53.6221 16.75ZM69.1434 22.18C67.6434 22.18 66.4734 21.765 65.6334 20.935C64.8034 20.105 64.3884 18.92 64.3884 17.38V11.5H66.8184V17.29C66.8184 19.17 67.5984 20.11 69.1584 20.11C69.9184 20.11 70.4984 19.885 70.8984 19.435C71.2984 18.975 71.4984 18.26 71.4984 17.29V11.5H73.8984V17.38C73.8984 18.92 73.4784 20.105 72.6384 20.935C71.8084 21.765 70.6434 22.18 69.1434 22.18ZM76.2997 11.5H78.7297V22H76.2997V11.5ZM89.3516 20.05V22H81.2216V11.5H89.1566V13.45H83.6366V15.73H88.5116V17.62H83.6366V20.05H89.3516ZM97.975 22L95.95 19.075H95.83H93.715V22H91.285V11.5H95.83C96.76 11.5 97.565 11.655 98.245 11.965C98.935 12.275 99.465 12.715 99.835 13.285C100.205 13.855 100.39 14.53 100.39 15.31C100.39 16.09 100.2 16.765 99.82 17.335C99.45 17.895 98.92 18.325 98.23 18.625L100.585 22H97.975ZM97.93 15.31C97.93 14.72 97.74 14.27 97.36 13.96C96.98 13.64 96.425 13.48 95.695 13.48H93.715V17.14H95.695C96.425 17.14 96.98 16.98 97.36 16.66C97.74 16.34 97.93 15.89 97.93 15.31ZM110.445 20.05V22H102.315V11.5H110.25V13.45H104.73V15.73H109.605V17.62H104.73V20.05H110.445ZM118.802 13.48H115.442V11.5H124.592V13.48H121.232V22H118.802V13.48ZM130.389 22.18C128.889 22.18 127.719 21.765 126.879 20.935C126.049 20.105 125.634 18.92 125.634 17.38V11.5H128.064V17.29C128.064 19.17 128.844 20.11 130.404 20.11C131.164 20.11 131.744 19.885 132.144 19.435C132.544 18.975 132.744 18.26 132.744 17.29V11.5H135.144V17.38C135.144 18.92 134.724 20.105 133.884 20.935C133.054 21.765 131.889 22.18 130.389 22.18ZM57.9428 34.54C58.5428 34.73 59.0128 35.05 59.3528 35.5C59.6928 35.94 59.8628 36.485 59.8628 37.135C59.8628 38.055 59.5028 38.765 58.7828 39.265C58.0728 39.755 57.0328 40 55.6628 40H50.2328V29.5H55.3628C56.6428 29.5 57.6228 29.745 58.3028 30.235C58.9928 30.725 59.3378 31.39 59.3378 32.23C59.3378 32.74 59.2128 33.195 58.9628 33.595C58.7228 33.995 58.3828 34.31 57.9428 34.54ZM52.6478 31.33V33.805H55.0628C55.6628 33.805 56.1178 33.7 56.4278 33.49C56.7378 33.28 56.8928 32.97 56.8928 32.56C56.8928 32.15 56.7378 31.845 56.4278 31.645C56.1178 31.435 55.6628 31.33 55.0628 31.33H52.6478ZM55.4828 38.17C56.1228 38.17 56.6028 38.065 56.9228 37.855C57.2528 37.645 57.4178 37.32 57.4178 36.88C57.4178 36.01 56.7728 35.575 55.4828 35.575H52.6478V38.17H55.4828ZM66.7875 40.18C65.6975 40.18 64.7125 39.945 63.8325 39.475C62.9625 39.005 62.2775 38.36 61.7775 37.54C61.2875 36.71 61.0425 35.78 61.0425 34.75C61.0425 33.72 61.2875 32.795 61.7775 31.975C62.2775 31.145 62.9625 30.495 63.8325 30.025C64.7125 29.555 65.6975 29.32 66.7875 29.32C67.8775 29.32 68.8575 29.555 69.7275 30.025C70.5975 30.495 71.2825 31.145 71.7825 31.975C72.2825 32.795 72.5325 33.72 72.5325 34.75C72.5325 35.78 72.2825 36.71 71.7825 37.54C71.2825 38.36 70.5975 39.005 69.7275 39.475C68.8575 39.945 67.8775 40.18 66.7875 40.18ZM66.7875 38.11C67.4075 38.11 67.9675 37.97 68.4675 37.69C68.9675 37.4 69.3575 37 69.6375 36.49C69.9275 35.98 70.0725 35.4 70.0725 34.75C70.0725 34.1 69.9275 33.52 69.6375 33.01C69.3575 32.5 68.9675 32.105 68.4675 31.825C67.9675 31.535 67.4075 31.39 66.7875 31.39C66.1675 31.39 65.6075 31.535 65.1075 31.825C64.6075 32.105 64.2125 32.5 63.9225 33.01C63.6425 33.52 63.5025 34.1 63.5025 34.75C63.5025 35.4 63.6425 35.98 63.9225 36.49C64.2125 37 64.6075 37.4 65.1075 37.69C65.6075 37.97 66.1675 38.11 66.7875 38.11ZM74.3588 29.5H76.7888V38.02H82.0538V40H74.3588V29.5ZM91.5415 38.05V40H83.4115V29.5H91.3465V31.45H85.8265V33.73H90.7015V35.62H85.8265V38.05H91.5415ZM95.65 31.48H92.29V29.5H101.44V31.48H98.08V40H95.65V31.48ZM107.686 40.18C106.596 40.18 105.611 39.945 104.731 39.475C103.861 39.005 103.176 38.36 102.676 37.54C102.186 36.71 101.941 35.78 101.941 34.75C101.941 33.72 102.186 32.795 102.676 31.975C103.176 31.145 103.861 30.495 104.731 30.025C105.611 29.555 106.596 29.32 107.686 29.32C108.776 29.32 109.756 29.555 110.626 30.025C111.496 30.495 112.181 31.145 112.681 31.975C113.181 32.795 113.431 33.72 113.431 34.75C113.431 35.78 113.181 36.71 112.681 37.54C112.181 38.36 111.496 39.005 110.626 39.475C109.756 39.945 108.776 40.18 107.686 40.18ZM107.686 38.11C108.306 38.11 108.866 37.97 109.366 37.69C109.866 37.4 110.256 37 110.536 36.49C110.826 35.98 110.971 35.4 110.971 34.75C110.971 34.1 110.826 33.52 110.536 33.01C110.256 32.5 109.866 32.105 109.366 31.825C108.866 31.535 108.306 31.39 107.686 31.39C107.066 31.39 106.506 31.535 106.006 31.825C105.506 32.105 105.111 32.5 104.821 33.01C104.541 33.52 104.401 34.1 104.401 34.75C104.401 35.4 104.541 35.98 104.821 36.49C105.111 37 105.506 37.4 106.006 37.69C106.506 37.97 107.066 38.11 107.686 38.11Z" fill="white"/>
</svg>
